HIERARCHY
ROOT Hips
{
	OFFSET 0.000000 0.000000 0.000000 
	CHANNELS 6 Xposition Yposition Zposition Yrotation Zrotation Xrotation 
	JOINT Lumbar
	{
		OFFSET 0.000000 0.000000 0.000000 
		CHANNELS 3 Zrotation Xrotation Yrotation
		JOINT Neck
		{
			OFFSET 0.000000 0.445665 0.000000 
			CHANNELS 3 Zrotation Xrotation Yrotation
			End Site
			{
				OFFSET 0.000000 0.227535 0.000000 
			}
		}
		JOINT RightShoulder
		{
			OFFSET 0.019635 0.377685 0.194865 
			CHANNELS 3 Zrotation Xrotation Yrotation
			JOINT RightElbow
			{
				OFFSET 0.000000 -0.243375 0.000000 
				CHANNELS 2 Zrotation Yrotation
				JOINT RightWrist
				{
					OFFSET 0.000000 -0.264825 0.000000 
					CHANNELS 2 Zrotation Xrotation
					End Site
					{
						OFFSET 0.006600 -0.176220 0.000990 
					}
				}
			}
		}
		JOINT LeftShoulder
		{
			OFFSET 0.019635 0.377685 -0.194865 
			CHANNELS 3 Zrotation Xrotation Yrotation
			JOINT LeftElbow
			{
				OFFSET 0.000000 -0.243375 0.000000 
				CHANNELS 2 Zrotation Yrotation
				JOINT LeftWrist
				{
					OFFSET 0.000000 -0.264825 0.000000 
					CHANNELS 2 Zrotation Xrotation
					End Site
					{
						OFFSET 0.006600 -0.176220 -0.000990 
					}
				}
			}
		}
	}
	JOINT RightHip
	{
		OFFSET 0.052140 -0.069960 0.075570 
		CHANNELS 3 Zrotation Xrotation Yrotation
		JOINT RightKnee
		{
			OFFSET 0.000000 -0.402270 0.000000 
			CHANNELS 1 Zrotation
			JOINT RightAnkle
			{
				OFFSET 0.000000 -0.404085 0.000000 
				CHANNELS 3 Zrotation Xrotation Yrotation
				End Site
				{
					OFFSET 0.204105 -0.089430 0.008415 
				}
			}
		}
	}
	JOINT LeftHip
	{
		OFFSET 0.052140 -0.069960 -0.075570 
		CHANNELS 3 Zrotation Xrotation Yrotation
		JOINT LeftKnee
		{
			OFFSET 0.000000 -0.402270 0.000000 
			CHANNELS 1 Zrotation
			JOINT LeftAnkle
			{
				OFFSET 0.000000 -0.404085 0.000000 
				CHANNELS 3 Zrotation Xrotation Yrotation
				End Site
				{
					OFFSET 0.204105 -0.089430 -0.008415 
				}
			}
		}
	}
}
MOTION
Frames: 17
Frame Time: 0.02
8e-05 -0.0001 0.00039 -536.99571 -42.51492 -0.31274 49.26879 1.61371 -7.18204 9.8581 -3.89303 -0.93656 -13.0808 -9.61159 -0.41214 34.24236 62.17459 -3.24068 -2.78723 11.68163 9.52272 -9.45404 44.64183 -62.75606 -5.38486 2.51646 42.8336 -0.57148 -5.87669 -19.23398 -6.42096 -3.59409 -3.97216 48.28305 4.5208 7.96506 -25.22394 -6.20198 1.58208 2.97501
0.00049 -9e-05 0.00012 -537.27653 -42.46786 -0.38548 49.27565 1.61742 -7.14863 9.47899 -3.63788 -0.93899 -13.35273 -9.27999 -1.52645 34.20742 67.95511 -1.61873 -1.87841 9.18102 9.29723 -7.91381 44.52447 -69.58855 -2.62545 1.59703 42.81399 -0.66089 -6.58015 -19.25549 -6.38665 -3.50674 -3.92715 48.23609 4.56508 8.0085 -25.22399 -6.20394 1.58685 2.97876
0.0009 -7e-05 -0.00016 -537.5567 -42.42089 -0.45805 49.2825 1.62117 -7.1153 9.1005 -3.38327 -0.94143 -13.62428 -8.94975 -2.63673 34.17237 73.7104 -0.00397 -0.97353 6.68485 9.0739 -6.38121 44.40754 -76.39371 0.1237 0.68151 42.79448 -0.75002 -7.28146 -19.27695 -6.35244 -3.41962 -3.88226 48.18926 4.60925 8.05187 -25.22403 -6.2059 1.59161 2.9825
0.00132 -6e-05 -0.00043 -537.8367 -42.37396 -0.53058 49.28934 1.62487 -7.08199 8.72247 -3.12887 -0.94386 -13.89546 -8.61925 -3.74733 34.13753 79.47167 1.61257 -0.06774 4.19139 8.84939 -4.84629 44.29053 -83.20393 2.87425 -0.23488 42.77494 -0.83915 -7.98276 -19.2984 -6.31824 -3.33254 -3.83739 48.14243 4.65339 8.09519 -25.22407 -6.20786 1.59636 2.98624
0.00173 -4e-05 -0.00071 -538.11727 -42.32697 -0.60326 49.2962 1.6285 -7.0486 8.34401 -2.87402 -0.94629 -14.16681 -8.2872 -4.86267 34.10281 85.26162 3.2373 0.84255 1.69476 8.62202 -3.30238 44.1731 -90.04443 5.63592 -1.15569 42.75529 -0.92859 -8.68621 -19.31989 -6.28393 -3.24522 -3.79239 48.09547 4.69762 8.13857 -25.22414 -6.20981 1.60113 2.98999
0.00214 -3e-05 -0.00098 -538.39657 -42.28006 -0.67559 49.30303 1.63251 -7.01537 7.96548 -2.61994 -0.94872 -14.43876 -7.96071 -5.96252 34.06701 90.94415 4.8311 1.73605 -0.80025 8.40712 -1.79343 44.05725 -96.7753 8.35873 -2.06009 42.73608 -1.01705 -9.38297 -19.34129 -6.24994 -3.15854 -3.74774 48.04892 4.74166 8.1819 -25.22411 -6.21181 1.60587 2.99372
0.00255 -1e-05 -0.00126 -538.67814 -42.23303 -0.74855 49.3099 1.63574 -6.98191 7.58754 -2.3646 -0.95115 -14.70929 -7.62364 -7.09095 34.03361 96.83436 6.48483 2.66197 -3.29583 8.16778 -0.21671 43.93827 -103.71729 11.156 -2.99619 42.716 -1.10737 -10.09238 -19.36285 -6.21535 -3.07068 -3.70244 48.00158 4.78604 8.2253 -25.22426 -6.21371 1.61066 2.99748
0.00296 0 -0.00153 -538.95756 -42.18612 -0.82092 49.31675 1.63972 -6.94858 7.20898 -2.1104 -0.95359 -14.98095 -7.29587 -8.19555 33.99769 102.53708 8.08429 3.55867 -5.79078 7.95019 1.29916 43.82232 -110.46835 13.88594 -3.90364 42.69675 -1.19599 -10.79022 -19.38427 -6.18131 -2.98391 -3.65774 47.95501 4.8301 8.26858 -25.22425 -6.2157 1.6154 3.00121
0.00338 2e-05 -0.00181 -539.23475 -42.13927 -0.89263 49.3235 1.6445 -6.91572 6.82972 -1.85755 -0.956 -15.25491 -6.98122 -9.26137 33.95984 107.99569 9.61375 4.41717 -8.287 7.76251 2.73424 43.70944 -116.9728 16.52911 -4.77393 42.67838 -1.2825 -11.47384 -19.4055 -6.14794 -2.89843 -3.61377 47.90921 4.87381 8.31199 -25.22405 -6.21779 1.62008 3.00491
0.00375 3e-05 -0.00209 -539.52594 -42.09181 -0.96834 49.3306 1.64434 -6.8811 6.45463 -1.59676 -0.95847 -15.51842 -6.59632 -10.52131 33.93656 114.81395 11.53496 5.48798 -10.78217 7.41273 4.61488 43.57701 -124.85647 19.65814 -5.85162 42.65454 -1.38106 -12.23906 -19.42774 -6.1107 -2.8054 -3.56558 47.85846 4.91967 8.35548 -25.22497 -6.21928 1.6251 3.0088
0.00424 6e-05 -0.00235 -539.78684 -42.04582 -1.03548 49.3371 1.65482 -6.84957 6.07076 -1.35287 -0.96085 -15.8021 -6.35628 -11.39022 33.88033 118.79269 12.63678 6.11571 -13.27499 7.39844 5.568 43.48705 -129.8558 21.77065 -6.49587 42.6425 -1.45424 -12.8322 -19.44789 -6.08164 -2.72836 -3.52631 47.81848 4.9609 8.39826 -25.22349 -6.22205 1.62942 3.01229
0.00503 0.00014 -0.00256 -539.97004 -42.00232 -1.07995 49.34061 1.69312 -6.83174 5.6624 -1.15475 -0.96292 -16.15609 -6.54528 -11.02814 33.75084 114.66921 11.41118 5.4767 -15.79907 8.36745 3.84771 43.50453 -126.64885 20.99463 -5.90454 42.66123 -1.45664 -12.94764 -19.46206 -6.07504 -2.6951 -3.51157 47.80573 4.98996 8.44342 -25.21557 -6.22836 1.63172 3.01468
0.00594 0.00025 -0.00275 -540.12175 -41.96052 -1.1156 49.34366 1.74237 -6.81606 5.24541 -0.97385 -0.96496 -16.52664 -6.87389 -10.30581 33.58511 107.75665 9.37892 4.40301 -18.31265 9.66144 1.22021 43.56621 -120.59778 19.21533 -4.8863 42.69212 -1.43373 -12.89104 -19.47417 -6.07666 -2.67794 -3.5058 47.80421 5.01424 8.48708 -25.20519 -6.23597 1.63333 3.01666
0.00679 0.00034 -0.00295 -540.28442 -41.919 -1.15482 49.34789 1.78751 -6.79601 4.83251 -0.78528 -0.967 -16.88107 -7.11807 -9.84756 33.42474 102.31699 7.76543 3.56045 -20.80797 10.76614 -0.90897 43.61376 -116.04085 17.96099 -4.09388 42.71853 -1.42315 -12.91712 -19.48739 -6.0745 -2.65344 -3.49586 47.7991 5.04036 8.52855 -25.19582 -6.243 1.63531 3.01884
0.00764 0.00044 -0.00314 -540.46147 -41.87323 -1.19613 49.34838 1.82898 -6.79027 4.41844 -0.59546 -0.96892 -17.27568 -7.45118 -8.95214 33.31109 95.98521 5.92387 2.57191 -23.40544 12.0483 -3.40491 43.6368 -110.63461 16.41698 -3.1673 42.74059 -1.40913 -12.92503 -19.49988 -6.07253 -2.62896 -3.48627 47.78772 5.06793 8.58201 -25.18689 -6.24998 1.63709 3.02099
0.00854 0.00054 -0.00335 -540.60071 -41.8365 -1.23068 49.35612 1.88074 -6.75525 4.00532 -0.4131 -0.97128 -17.58568 -7.63207 -8.89789 33.09169 90.87483 4.37385 1.78855 -25.78143 13.03641 -5.34983 43.7207 -106.31368 15.23386 -2.41771 42.77454 -1.39616 -12.92855 -19.51339 -6.07212 -2.60839 -3.47815 47.79196 5.09127 8.61032 -25.17647 -6.25736 1.63908 3.02308
0.00951 0.00064 -0.00361 -540.64665 -41.8263 -1.25149 49.38762 1.9576 -6.63891 3.59272 -0.24076 -0.97323 -17.7021 -7.36172 -11.10255 32.58907 89.60619 3.7599 1.64103 -27.59956 13.14418 -5.56599 43.96716 -105.77928 15.33675 -2.27405 42.8387 -1.39339 -12.97564 -19.53032 -6.07376 -2.59331 -3.47115 47.83741 5.10489 8.5678 -25.16259 -6.26551 1.642 3.02517
